<svg xmlns="http://www.w3.org/2000/svg" xmlns:xlink="http://www.w3.org/1999/xlink" width="1000" zoomAndPan="magnify" viewBox="0 0 750 1124.99995" height="1500" preserveAspectRatio="xMidYMid meet" version="1.0"><defs><g/></defs><path fill="#000000" d="M 679.460938 544.722656 C 688.273438 543.050781 697.078125 543.558594 704.984375 543.601562 C 713.015625 543.675781 728.414062 548.269531 735.335938 543.746094 C 749.335938 535.375 723.433594 521.234375 717.328125 518.398438 C 697.511719 508.039062 670.851562 504.316406 643.757812 497.476562 C 635.371094 495.351562 617.640625 491.957031 609.808594 484.039062 C 610.621094 483.109375 611.507812 482.171875 612.4375 481.285156 C 614.328125 481.539062 616.425781 481.921875 618.90625 482.5 C 632.609375 485.714844 654.769531 490.960938 666.308594 481.277344 C 672.339844 478.976562 676.566406 475.414062 675.832031 470.148438 C 674.75 459.679688 632.160156 453.054688 621.625 450.820312 C 576.871094 440.820312 528.429688 434.101562 479.621094 429.53125 C 385.777344 420.921875 290.800781 418.292969 199.523438 423.992188 C 164.914062 426.46875 130.683594 430.578125 98.800781 437.171875 C 72.691406 442.601562 46.25 448.835938 26.511719 459.707031 C 22.636719 461.78125 12.402344 466.585938 16.511719 470.984375 C 17.984375 472.601562 23.683594 471.707031 25.597656 471.765625 C 48.59375 472.507812 76.140625 467.445312 102.121094 471.144531 C 111.445312 472.492188 114.128906 474.652344 104.558594 479.378906 C 92.339844 485.46875 78.476562 489.261719 67.128906 494.640625 C 50.484375 502.539062 36.660156 510.976562 25.574219 521.242188 C 11.457031 534.164062 0.46875 547.710938 3.925781 568.898438 C 5.773438 580.011719 8.378906 585.265625 17.332031 585.574219 C 25.464844 585.84375 33.195312 581.835938 41.808594 579.574219 C 61.640625 574.402344 86.667969 565.292969 117.007812 565.902344 C 123.359375 566.027344 152.789062 565.9375 139.050781 573.734375 C 123.007812 582.832031 102.257812 586.21875 88.125 592.519531 C 69.085938 600.929688 54.433594 610.71875 45.480469 622.433594 C 40.980469 628.191406 35.320312 634.578125 35.28125 643.085938 C 35.238281 650.636719 36.71875 647.605469 43.90625 652.308594 C 55.019531 659.453125 46 664.527344 52.5 672.675781 C 58.902344 680.902344 80.574219 679.453125 75.671875 689.839844 C 71.539062 697.957031 48.191406 698.609375 49.941406 713.144531 C 52.125 729.34375 80.15625 711.644531 81.964844 710.558594 C 108.324219 695.070312 135.042969 684.441406 174.949219 672.984375 C 250.902344 650.550781 380.246094 637.472656 494.355469 644.066406 C 580.6875 648.976562 638.628906 667.90625 679.6875 682.367188 C 690.601562 686.183594 703 691.957031 718.589844 688.609375 C 730.3125 686.03125 734.964844 675.964844 732.273438 668.769531 C 730.371094 659.5625 683.972656 645.3125 707.019531 622.300781 C 711.613281 618.101562 716.734375 616.972656 719.058594 611.5 C 721.46875 605.882812 716.5 603.433594 714.128906 601.5 C 708.011719 596.453125 701.226562 591.15625 693.789062 585.523438 C 685.621094 579.316406 674.367188 573.332031 666.292969 564.246094 C 658.265625 555.34375 666.214844 547.183594 679.460938 544.722656 " fill-opacity="1" fill-rule="nonzero"/><path fill="#000000" d="M 261.964844 674.359375 C 262.199219 674.476562 262.644531 674.382812 263.136719 674.175781 C 262.207031 674.207031 261.765625 674.257812 261.964844 674.359375 " fill-opacity="1" fill-rule="nonzero"/><path fill="#000000" d="M 622.242188 697.46875 C 642.84375 661.480469 565.660156 671.628906 521.007812 667.179688 C 465.933594 660.945312 398.628906 659.042969 336.613281 663.355469 C 324.105469 664.082031 306.917969 660.46875 297.027344 665.238281 C 290.039062 663.65625 276.359375 662.609375 273.269531 662.777344 C 269.671875 662.996094 255.078125 663.941406 254.785156 667.90625 C 254.324219 673.246094 260.375 668.644531 264.84375 671.722656 C 265.832031 672.398438 264.34375 673.65625 263.136719 674.175781 C 268.691406 673.980469 292.039062 674.558594 298.835938 670.667969 C 323.035156 682.894531 362.195312 666.902344 390.160156 669.328125 C 396.636719 669.972656 445.972656 672.449219 444.828125 678.324219 C 444.542969 679.898438 367.777344 679.503906 400.878906 688.5 C 419.265625 693.554688 441.472656 692.132812 459.429688 695.128906 C 469.386719 697 538.273438 717.394531 542.261719 711.015625 C 543.441406 709.929688 540.925781 708.441406 538.546875 707.855469 C 542.65625 707.777344 549.820312 707.519531 551.234375 707.628906 C 560.277344 708.316406 568.695312 709.4375 577 710.492188 C 582.496094 711.167969 600.695312 712.640625 592.109375 706.105469 C 590.804688 705 572.519531 699.738281 573.410156 699.335938 C 583.375 695.945312 619.917969 701.957031 622.242188 697.46875 " fill-opacity="1" fill-rule="nonzero"/><path fill="#000000" d="M 324.3125 678.609375 C 320.398438 678.875 316.0625 681.445312 312.113281 683.078125 C 319.359375 683.410156 328.347656 683.980469 330.773438 684.140625 C 339.871094 684.75 353.667969 688.875 361.800781 687.3125 C 372.503906 685.320312 358.628906 681.460938 353.273438 680.398438 C 343.921875 678.523438 333.5625 678.105469 324.3125 678.609375 " fill-opacity="1" fill-rule="nonzero"/><path fill="#000000" d="M 302.308594 683.109375 C 305.183594 685.351562 308.507812 684.566406 312.113281 683.078125 C 306.40625 682.816406 301.789062 682.710938 302.308594 683.109375 " fill-opacity="1" fill-rule="nonzero"/><path fill="#000000" d="M 565.089844 411.433594 C 565.441406 411.441406 565.800781 411.457031 565.96875 411.457031 C 565.859375 411.457031 565.574219 411.449219 565.089844 411.433594 " fill-opacity="1" fill-rule="nonzero"/><path fill="#000000" d="M 565.089844 411.433594 C 564.949219 411.421875 564.847656 411.421875 564.679688 411.414062 C 564.804688 411.421875 564.941406 411.433594 565.089844 411.433594 " fill-opacity="1" fill-rule="nonzero"/><path fill="#000000" d="M 394.304688 410.167969 C 405.121094 412.359375 425.765625 410.476562 437.964844 410.585938 C 445.105469 410.644531 452.25 410.671875 459.386719 410.835938 C 487.003906 411.507812 514.957031 413.65625 542.378906 417.289062 C 550.480469 417.984375 613.539062 429.648438 613.347656 427.289062 C 613.582031 423.121094 586.878906 421.683594 588.863281 418.101562 C 589.75 416.527344 601.917969 417.941406 603.273438 417.082031 C 606.527344 415.003906 572.070312 412.894531 571.703125 411.699219 C 571.550781 411.171875 570.90625 411.039062 570.101562 411.082031 C 570.914062 411.222656 571.566406 411.433594 571.617188 411.714844 C 575.316406 433.003906 483.972656 398.59375 442 402.226562 C 436.746094 402.453125 437.320312 402.175781 438.726562 404.445312 C 439.496094 405.492188 372.261719 405.742188 394.304688 410.167969 " fill-opacity="1" fill-rule="nonzero"/><path fill="#000000" d="M 566.171875 411.464844 C 566.320312 411.882812 568.523438 411.15625 570.101562 411.082031 C 568.421875 410.804688 565.96875 410.863281 566.171875 411.464844 " fill-opacity="1" fill-rule="nonzero"/><path fill="#000000" d="M 274.476562 407.273438 C 274.199219 407.398438 323.878906 406.226562 327.167969 406.125 C 339.109375 405.667969 353.074219 406.417969 364.648438 405.390625 C 366.101562 405.265625 366.980469 405.296875 367.476562 405.363281 C 366.992188 405.089844 366.320312 404.394531 366.027344 402.996094 C 365.984375 402.8125 367.425781 402.914062 367.359375 402.730469 C 364.699219 395.582031 325.132812 400.964844 303.3125 401.542969 C 300.699219 401.347656 298.976562 402.496094 296.71875 402.261719 C 296.515625 402.21875 306.640625 404.386719 304.976562 404.828125 C 296.902344 406.855469 280.894531 403.691406 274.476562 407.273438 " fill-opacity="1" fill-rule="nonzero"/><path fill="#000000" d="M 367.476562 405.363281 C 368.054688 405.699219 368.355469 405.492188 367.476562 405.363281 " fill-opacity="1" fill-rule="nonzero"/><g fill="#ff9eda" fill-opacity="0.502"><g transform="translate(133.323017, 589.293383)"><g><path d="M 58.359375 -73.328125 C 60.828125 -73.585938 62.796875 -73.253906 64.265625 -72.328125 C 65.742188 -71.398438 66.578125 -70.003906 66.765625 -68.140625 C 66.859375 -67.210938 66.820312 -66.296875 66.65625 -65.390625 L 65 -55.828125 C 64.707031 -54.046875 64.066406 -52.734375 63.078125 -51.890625 C 62.097656 -51.046875 60.738281 -50.535156 59 -50.359375 C 57.332031 -50.179688 55.960938 -50.390625 54.890625 -50.984375 C 53.816406 -51.585938 52.96875 -52.671875 52.34375 -54.234375 L 50.15625 -59.75 C 49.78125 -60.726562 49.375 -61.363281 48.9375 -61.65625 C 48.507812 -61.945312 47.660156 -62.023438 46.390625 -61.890625 L 36.390625 -60.859375 L 32.84375 -40.5 L 34.734375 -40.6875 C 35.660156 -40.78125 36.460938 -40.992188 37.140625 -41.328125 C 37.816406 -41.671875 38.507812 -42.25 39.21875 -43.0625 L 42.0625 -45.984375 C 43.09375 -47.097656 44.035156 -47.914062 44.890625 -48.4375 C 45.753906 -48.96875 46.6875 -49.285156 47.6875 -49.390625 C 48.957031 -49.523438 50.046875 -49.265625 50.953125 -48.609375 C 51.859375 -47.960938 52.378906 -46.972656 52.515625 -45.640625 C 52.578125 -45.109375 52.539062 -44.460938 52.40625 -43.703125 L 49.5625 -28.046875 C 48.914062 -24.691406 47.289062 -22.878906 44.6875 -22.609375 C 42.550781 -22.390625 40.769531 -23.316406 39.34375 -25.390625 L 37.1875 -28.609375 C 36.625 -29.484375 36.128906 -30.03125 35.703125 -30.25 C 35.273438 -30.476562 34.664062 -30.554688 33.875 -30.484375 L 30.96875 -30.171875 L 28.296875 -14.84375 C 28.203125 -14.425781 28.191406 -13.882812 28.265625 -13.21875 C 28.359375 -12.28125 28.648438 -11.535156 29.140625 -10.984375 C 29.640625 -10.441406 30.351562 -9.875 31.28125 -9.28125 C 32.082031 -8.757812 32.632812 -8.328125 32.9375 -7.984375 C 33.25 -7.648438 33.429688 -7.21875 33.484375 -6.6875 C 33.609375 -5.488281 33.160156 -4.597656 32.140625 -4.015625 C 31.117188 -3.441406 29.578125 -3.046875 27.515625 -2.828125 L 2.390625 -0.25 C 0.660156 -0.0703125 -0.664062 -0.253906 -1.59375 -0.796875 C -2.53125 -1.335938 -2.921875 -2.191406 -2.765625 -3.359375 C -2.703125 -3.960938 -2.503906 -4.46875 -2.171875 -4.875 C -1.847656 -5.28125 -1.34375 -5.753906 -0.65625 -6.296875 C 0.40625 -7.085938 1.234375 -7.878906 1.828125 -8.671875 C 2.421875 -9.472656 2.84375 -10.660156 3.09375 -12.234375 L 10.9375 -56.609375 C 11.113281 -57.515625 11.164062 -58.335938 11.09375 -59.078125 C 11.007812 -59.867188 10.820312 -60.519531 10.53125 -61.03125 C 10.238281 -61.550781 9.835938 -62.082031 9.328125 -62.625 C 8.628906 -63.4375 8.253906 -64.109375 8.203125 -64.640625 C 8.179688 -64.828125 8.207031 -65.195312 8.28125 -65.75 C 8.46875 -66.65625 9.007812 -67.332031 9.90625 -67.78125 C 10.800781 -68.238281 12.148438 -68.5625 13.953125 -68.75 Z M 58.359375 -73.328125 "/></g></g></g><g fill="#ff9eda" fill-opacity="0.502"><g transform="translate(195.796153, 583.003543)"><g><path d="M 26.09375 -76.625 C 29.957031 -76.925781 32.867188 -76.414062 34.828125 -75.09375 C 36.785156 -73.769531 37.863281 -71.835938 38.0625 -69.296875 C 38.175781 -67.828125 38.054688 -66.378906 37.703125 -64.953125 L 26.046875 -12.5625 C 25.910156 -11.738281 25.867188 -11.023438 25.921875 -10.421875 C 25.984375 -9.566406 26.195312 -8.898438 26.5625 -8.421875 C 26.9375 -7.941406 27.445312 -7.492188 28.09375 -7.078125 C 28.59375 -6.640625 28.953125 -6.273438 29.171875 -5.984375 C 29.398438 -5.703125 29.46875 -5.320312 29.375 -4.84375 C 29.101562 -3.957031 28.484375 -3.273438 27.515625 -2.796875 C 26.546875 -2.316406 25.023438 -1.992188 22.953125 -1.828125 L 0.09375 0 C -1.632812 0.132812 -2.921875 -0.046875 -3.765625 -0.546875 C -4.617188 -1.054688 -4.953125 -1.789062 -4.765625 -2.75 C -4.554688 -3.570312 -3.910156 -4.332031 -2.828125 -5.03125 C -1.867188 -5.632812 -1.082031 -6.332031 -0.46875 -7.125 C 0.144531 -7.914062 0.625 -9.128906 0.96875 -10.765625 L 12.21875 -62.015625 C 12.363281 -62.628906 12.421875 -63.128906 12.390625 -63.515625 C 12.328125 -64.253906 12.097656 -64.84375 11.703125 -65.28125 C 11.304688 -65.726562 10.789062 -66.160156 10.15625 -66.578125 C 9.425781 -67.066406 8.894531 -67.492188 8.5625 -67.859375 C 8.226562 -68.234375 8.140625 -68.765625 8.296875 -69.453125 C 8.566406 -71.023438 10.5625 -72.53125 14.28125 -73.96875 C 18.007812 -75.40625 21.945312 -76.289062 26.09375 -76.625 Z M 26.09375 -76.625 "/></g></g></g><g fill="#ff9eda" fill-opacity="0.502"><g transform="translate(231.793247, 579.958582)"><g><path d="M 35.921875 -55.28125 C 45.023438 -55.78125 51.835938 -54.304688 56.359375 -50.859375 C 60.878906 -47.421875 63.300781 -42.722656 63.625 -36.765625 C 63.738281 -34.753906 63.597656 -32.492188 63.203125 -29.984375 C 62.242188 -24.429688 60.132812 -19.5 56.875 -15.1875 C 53.613281 -10.875 49.515625 -7.457031 44.578125 -4.9375 C 39.648438 -2.414062 34.242188 -0.988281 28.359375 -0.65625 C 19.054688 -0.144531 12.078125 -1.625 7.421875 -5.09375 C 2.765625 -8.5625 0.265625 -13.378906 -0.078125 -19.546875 C -0.191406 -21.617188 -0.0507812 -23.9375 0.34375 -26.5 C 1.332031 -31.800781 3.503906 -36.570312 6.859375 -40.8125 C 10.222656 -45.050781 14.429688 -48.4375 19.484375 -50.96875 C 24.546875 -53.507812 30.023438 -54.945312 35.921875 -55.28125 Z M 36.09375 -46.328125 C 34.6875 -46.242188 33.269531 -44.898438 31.84375 -42.296875 C 30.414062 -39.703125 28.820312 -34.863281 27.0625 -27.78125 C 25.3125 -20.695312 24.515625 -15.753906 24.671875 -12.953125 C 24.753906 -11.484375 25.039062 -10.507812 25.53125 -10.03125 C 26.019531 -9.550781 26.664062 -9.332031 27.46875 -9.375 C 28.882812 -9.3125 30.273438 -10.59375 31.640625 -13.21875 C 33.015625 -15.84375 34.632812 -20.90625 36.5 -28.40625 C 38.207031 -35.019531 38.976562 -39.800781 38.8125 -42.75 C 38.738281 -44.15625 38.46875 -45.113281 38 -45.625 C 37.539062 -46.132812 36.90625 -46.367188 36.09375 -46.328125 Z M 36.09375 -46.328125 "/></g></g></g><g fill="#ff9eda" fill-opacity="0.502"><g transform="translate(296.841812, 576.397211)"><g><path d="M 47.953125 -54.484375 C 51.703125 -54.585938 54.734375 -53.523438 57.046875 -51.296875 C 59.359375 -49.078125 60.554688 -46.289062 60.640625 -42.9375 C 60.671875 -41.664062 60.566406 -40.492188 60.328125 -39.421875 C 59.734375 -36.648438 58.515625 -34.5 56.671875 -32.96875 C 54.835938 -31.445312 52.613281 -30.65625 50 -30.59375 C 47.457031 -30.519531 45.515625 -31.070312 44.171875 -32.25 C 42.828125 -33.425781 41.625 -35.003906 40.5625 -36.984375 C 40 -38.109375 39.472656 -38.929688 38.984375 -39.453125 C 38.503906 -39.972656 37.96875 -40.226562 37.375 -40.21875 C 36.695312 -40.195312 36.113281 -39.910156 35.625 -39.359375 C 35.132812 -38.816406 34.707031 -37.867188 34.34375 -36.515625 L 27.25 -11.1875 C 27.132812 -10.84375 27.085938 -10.335938 27.109375 -9.671875 C 27.128906 -8.796875 27.394531 -8.082031 27.90625 -7.53125 C 28.425781 -6.976562 29.128906 -6.441406 30.015625 -5.921875 C 30.835938 -5.410156 31.382812 -4.988281 31.65625 -4.65625 C 31.9375 -4.320312 32.050781 -3.890625 32 -3.359375 C 31.882812 -2.484375 31.410156 -1.832031 30.578125 -1.40625 C 29.753906 -0.988281 28.335938 -0.753906 26.328125 -0.703125 L 0.609375 -0.015625 C -1.140625 0.0234375 -2.40625 -0.222656 -3.1875 -0.765625 C -3.976562 -1.316406 -4.28125 -2.066406 -4.09375 -3.015625 C -3.851562 -3.828125 -3.171875 -4.550781 -2.046875 -5.1875 C -1.054688 -5.738281 -0.238281 -6.394531 0.40625 -7.15625 C 1.0625 -7.914062 1.601562 -9.101562 2.03125 -10.71875 L 10.21875 -40 C 10.34375 -40.332031 10.394531 -40.800781 10.375 -41.40625 C 10.363281 -42.144531 10.203125 -42.710938 9.890625 -43.109375 C 9.578125 -43.503906 9.070312 -43.992188 8.375 -44.578125 C 7.695312 -45.097656 7.21875 -45.554688 6.9375 -45.953125 C 6.664062 -46.347656 6.617188 -46.882812 6.796875 -47.5625 C 7.148438 -49.113281 9.222656 -50.523438 13.015625 -51.796875 C 16.804688 -53.078125 20.773438 -53.773438 24.921875 -53.890625 C 27.671875 -53.960938 29.96875 -53.398438 31.8125 -52.203125 C 33.65625 -51.015625 34.875 -49.285156 35.46875 -47.015625 C 38.5625 -51.859375 42.722656 -54.347656 47.953125 -54.484375 Z M 47.953125 -54.484375 "/></g></g></g><g fill="#ff9eda" fill-opacity="0.502"><g transform="translate(354.418976, 574.98721)"><g><path d="M 26.21875 -53.3125 C 30.113281 -53.332031 32.96875 -52.601562 34.78125 -51.125 C 36.59375 -49.65625 37.503906 -47.648438 37.515625 -45.109375 C 37.515625 -43.566406 37.285156 -42.09375 36.828125 -40.6875 L 27.703125 -10.578125 C 27.503906 -9.765625 27.410156 -9.054688 27.421875 -8.453125 C 27.421875 -7.585938 27.585938 -6.90625 27.921875 -6.40625 C 28.253906 -5.90625 28.726562 -5.421875 29.34375 -4.953125 C 29.8125 -4.484375 30.144531 -4.097656 30.34375 -3.796875 C 30.550781 -3.492188 30.585938 -3.109375 30.453125 -2.640625 C 30.128906 -1.765625 29.460938 -1.125 28.453125 -0.71875 C 27.453125 -0.3125 25.910156 -0.101562 23.828125 -0.09375 L 0.90625 0 C -0.84375 0 -2.117188 -0.28125 -2.921875 -0.84375 C -3.722656 -1.40625 -3.992188 -2.160156 -3.734375 -3.109375 C -3.472656 -3.910156 -2.769531 -4.617188 -1.625 -5.234375 C -0.632812 -5.765625 0.191406 -6.398438 0.859375 -7.140625 C 1.535156 -7.890625 2.101562 -9.066406 2.5625 -10.671875 L 11.1875 -39.765625 C 11.382812 -40.367188 11.484375 -40.875 11.484375 -41.28125 C 11.472656 -42.019531 11.300781 -42.601562 10.96875 -43.03125 C 10.632812 -43.46875 10.132812 -43.921875 9.46875 -44.390625 C 8.789062 -44.921875 8.316406 -45.382812 8.046875 -45.78125 C 7.773438 -46.1875 7.738281 -46.722656 7.9375 -47.390625 C 8.332031 -48.929688 10.4375 -50.300781 14.25 -51.5 C 18.070312 -52.695312 22.0625 -53.300781 26.21875 -53.3125 Z M 32.84375 -75.5625 C 35.457031 -75.570312 37.640625 -74.726562 39.390625 -73.03125 C 41.148438 -71.332031 42.035156 -69.242188 42.046875 -66.765625 C 42.054688 -65.015625 41.609375 -63.296875 40.703125 -61.609375 C 39.804688 -59.929688 38.539062 -58.566406 36.90625 -57.515625 C 35.269531 -56.472656 33.445312 -55.953125 31.4375 -55.953125 C 28.882812 -55.941406 26.75 -56.785156 25.03125 -58.484375 C 23.3125 -60.179688 22.410156 -62.304688 22.328125 -64.859375 C 22.328125 -66.535156 22.757812 -68.195312 23.625 -69.84375 C 24.488281 -71.488281 25.722656 -72.847656 27.328125 -73.921875 C 28.929688 -75.003906 30.769531 -75.550781 32.84375 -75.5625 Z M 32.84375 -75.5625 "/></g></g></g><g fill="#ff9eda" fill-opacity="0.502"><g transform="translate(390.846436, 574.884591)"><g/></g></g><g fill="#ff9eda" fill-opacity="0.502"><g transform="translate(410.405599, 574.844124)"><g><path d="M 67.4375 -65.078125 C 69.914062 -65.003906 71.828125 -64.410156 73.171875 -63.296875 C 74.515625 -62.179688 75.160156 -60.6875 75.109375 -58.8125 C 75.078125 -57.875 74.921875 -56.972656 74.640625 -56.109375 L 71.75 -46.859375 C 71.226562 -45.128906 70.421875 -43.910156 69.328125 -43.203125 C 68.234375 -42.492188 66.816406 -42.164062 65.078125 -42.21875 C 63.398438 -42.257812 62.066406 -42.644531 61.078125 -43.375 C 60.097656 -44.113281 59.398438 -45.296875 58.984375 -46.921875 L 57.546875 -52.6875 C 57.304688 -53.707031 56.988281 -54.390625 56.59375 -54.734375 C 56.207031 -55.078125 55.378906 -55.265625 54.109375 -55.296875 L 44.046875 -55.59375 L 37.84375 -35.84375 L 39.75 -35.78125 C 40.6875 -35.757812 41.507812 -35.875 42.21875 -36.125 C 42.9375 -36.375 43.707031 -36.851562 44.53125 -37.5625 L 47.734375 -40.09375 C 48.890625 -41.0625 49.925781 -41.75 50.84375 -42.15625 C 51.769531 -42.570312 52.738281 -42.765625 53.75 -42.734375 C 55.019531 -42.703125 56.0625 -42.300781 56.875 -41.53125 C 57.6875 -40.769531 58.070312 -39.722656 58.03125 -38.390625 C 58.007812 -37.847656 57.890625 -37.210938 57.671875 -36.484375 L 52.828125 -21.328125 C 51.734375 -18.085938 49.878906 -16.503906 47.265625 -16.578125 C 45.117188 -16.640625 43.472656 -17.785156 42.328125 -20.015625 L 40.609375 -23.484375 C 40.160156 -24.441406 39.738281 -25.054688 39.34375 -25.328125 C 38.957031 -25.609375 38.363281 -25.757812 37.5625 -25.78125 L 34.640625 -25.859375 L 30 -11.015625 C 29.851562 -10.617188 29.769531 -10.082031 29.75 -9.40625 C 29.71875 -8.46875 29.910156 -7.691406 30.328125 -7.078125 C 30.742188 -6.472656 31.378906 -5.820312 32.234375 -5.125 C 32.953125 -4.5 33.4375 -3.992188 33.6875 -3.609375 C 33.945312 -3.234375 34.070312 -2.78125 34.0625 -2.25 C 34.03125 -1.039062 33.46875 -0.21875 32.375 0.21875 C 31.289062 0.65625 29.710938 0.84375 27.640625 0.78125 L 2.40625 0.0625 C 0.664062 0.0195312 -0.628906 -0.328125 -1.484375 -0.984375 C -2.335938 -1.648438 -2.609375 -2.550781 -2.296875 -3.6875 C -2.160156 -4.289062 -1.898438 -4.769531 -1.515625 -5.125 C -1.140625 -5.476562 -0.570312 -5.878906 0.1875 -6.328125 C 1.332031 -6.972656 2.25 -7.648438 2.9375 -8.359375 C 3.632812 -9.078125 4.210938 -10.203125 4.671875 -11.734375 L 18.265625 -54.71875 C 18.554688 -55.582031 18.710938 -56.378906 18.734375 -57.109375 C 18.753906 -57.910156 18.65625 -58.582031 18.4375 -59.125 C 18.21875 -59.664062 17.882812 -60.242188 17.4375 -60.859375 C 16.851562 -61.753906 16.570312 -62.46875 16.59375 -63 C 16.59375 -63.195312 16.671875 -63.566406 16.828125 -64.109375 C 17.117188 -64.972656 17.738281 -65.570312 18.6875 -65.90625 C 19.632812 -66.25 21.007812 -66.394531 22.8125 -66.34375 Z M 67.4375 -65.078125 "/></g></g></g><g fill="#ff9eda" fill-opacity="0.502"><g transform="translate(473.040069, 576.66716)"><g><path d="M 37.078125 -51.6875 C 45.566406 -51.207031 51.640625 -49.503906 55.296875 -46.578125 C 58.960938 -43.660156 60.675781 -40.09375 60.4375 -35.875 C 60.375 -34.601562 60.175781 -33.4375 59.84375 -32.375 C 58.59375 -28.007812 55.617188 -25.003906 50.921875 -23.359375 C 46.234375 -21.710938 40.773438 -21.066406 34.546875 -21.421875 C 31.398438 -21.597656 28.460938 -21.96875 25.734375 -22.53125 C 25.484375 -19.039062 26.285156 -16.539062 28.140625 -15.03125 C 30.003906 -13.519531 32.671875 -12.664062 36.140625 -12.46875 C 37.753906 -12.382812 39.304688 -12.484375 40.796875 -12.765625 C 42.296875 -13.046875 44.203125 -13.484375 46.515625 -14.078125 C 48.429688 -14.648438 49.726562 -14.914062 50.40625 -14.875 C 51.132812 -14.84375 51.472656 -14.390625 51.421875 -13.515625 C 51.359375 -11.171875 50.347656 -8.757812 48.390625 -6.28125 C 46.429688 -3.800781 43.628906 -1.757812 39.984375 -0.15625 C 36.335938 1.445312 32.003906 2.109375 26.984375 1.828125 C 19.554688 1.398438 13.570312 -0.816406 9.03125 -4.828125 C 4.5 -8.847656 2.429688 -14.4375 2.828125 -21.59375 C 2.941406 -23.59375 3.34375 -25.921875 4.03125 -28.578125 C 6.15625 -36.710938 10.164062 -42.710938 16.0625 -46.578125 C 21.96875 -50.441406 28.972656 -52.144531 37.078125 -51.6875 Z M 26.78125 -28.5 C 27.050781 -28.414062 27.421875 -28.359375 27.890625 -28.328125 C 30.703125 -28.171875 32.914062 -29.359375 34.53125 -31.890625 C 36.144531 -34.421875 37.007812 -37.289062 37.125 -40.5 C 37.164062 -42.382812 36.691406 -43.351562 35.703125 -43.40625 C 34.960938 -43.445312 34.054688 -42.910156 32.984375 -41.796875 C 31.910156 -40.679688 30.820312 -38.976562 29.71875 -36.6875 C 28.613281 -34.40625 27.632812 -31.675781 26.78125 -28.5 Z M 26.78125 -28.5 "/></g></g></g><g fill="#ff9eda" fill-opacity="0.502"><g transform="translate(528.500422, 579.765359)"><g><path d="M 37.484375 -51.171875 C 43.035156 -50.703125 47.785156 -49.796875 51.734375 -48.453125 C 55.679688 -47.109375 58.664062 -45.441406 60.6875 -43.453125 C 62.71875 -41.472656 63.640625 -39.347656 63.453125 -37.078125 C 63.253906 -34.734375 62.175781 -32.90625 60.21875 -31.59375 C 58.257812 -30.28125 55.640625 -29.757812 52.359375 -30.03125 C 49.023438 -30.3125 46.273438 -31.378906 44.109375 -33.234375 C 41.953125 -35.097656 40.976562 -37.300781 41.1875 -39.84375 C 41.257812 -40.71875 41.457031 -41.546875 41.78125 -42.328125 C 40.601562 -42.753906 39.546875 -43.007812 38.609375 -43.09375 C 36.941406 -43.226562 35.523438 -42.941406 34.359375 -42.234375 C 33.191406 -41.523438 32.578125 -40.4375 32.515625 -38.96875 C 32.378906 -37.226562 33.125 -35.679688 34.75 -34.328125 C 36.382812 -32.984375 39.066406 -31.25 42.796875 -29.125 C 46.015625 -27.375 48.65625 -25.789062 50.71875 -24.375 C 52.789062 -22.957031 54.5 -21.25 55.84375 -19.25 C 57.1875 -17.25 57.753906 -14.984375 57.546875 -12.453125 C 57.492188 -11.910156 57.28125 -10.914062 56.90625 -9.46875 C 55.457031 -5.070312 52.1875 -1.78125 47.09375 0.40625 C 42 2.601562 35.476562 3.367188 27.53125 2.703125 C 18.570312 1.960938 11.566406 0.171875 6.515625 -2.671875 C 1.472656 -5.523438 -0.867188 -9.054688 -0.515625 -13.265625 C -0.273438 -16.140625 0.773438 -18.238281 2.640625 -19.5625 C 4.503906 -20.882812 6.867188 -21.425781 9.734375 -21.1875 C 13.078125 -20.90625 15.847656 -19.628906 18.046875 -17.359375 C 20.253906 -15.097656 21.222656 -12.363281 20.953125 -9.15625 C 20.878906 -8.28125 20.703125 -7.378906 20.421875 -6.453125 C 21.984375 -5.929688 23.503906 -5.609375 24.984375 -5.484375 C 26.710938 -5.335938 28.179688 -5.6875 29.390625 -6.53125 C 30.609375 -7.375 31.289062 -8.628906 31.4375 -10.296875 C 31.5 -11.835938 30.835938 -13.21875 29.453125 -14.4375 C 28.078125 -15.664062 25.851562 -17.175781 22.78125 -18.96875 C 19.882812 -20.632812 17.519531 -22.164062 15.6875 -23.5625 C 13.863281 -24.96875 12.34375 -26.660156 11.125 -28.640625 C 9.914062 -30.628906 9.421875 -32.894531 9.640625 -35.4375 C 10.085938 -40.90625 12.734375 -45.066406 17.578125 -47.921875 C 22.429688 -50.785156 29.066406 -51.867188 37.484375 -51.171875 Z M 37.484375 -51.171875 "/></g></g></g><g fill="#ff9eda" fill-opacity="0.502"><g transform="translate(587.238376, 584.767963)"><g><path d="M 50.25 -46.78125 C 51.519531 -46.644531 52.472656 -46.269531 53.109375 -45.65625 C 53.753906 -45.039062 54.023438 -44.269531 53.921875 -43.34375 C 53.898438 -43.070312 53.785156 -42.609375 53.578125 -41.953125 C 52.390625 -39.117188 50.226562 -37.875 47.09375 -38.21875 L 41.296875 -38.84375 L 31.140625 -14.953125 C 30.691406 -13.984375 30.410156 -12.960938 30.296875 -11.890625 C 30.171875 -10.703125 30.414062 -9.835938 31.03125 -9.296875 C 31.65625 -8.753906 32.566406 -8.421875 33.765625 -8.296875 C 34.828125 -8.179688 36.171875 -8.164062 37.796875 -8.25 C 38.617188 -8.375 39.332031 -8.40625 39.9375 -8.34375 C 40.394531 -8.289062 40.722656 -8.101562 40.921875 -7.78125 C 41.128906 -7.457031 41.207031 -7.0625 41.15625 -6.59375 C 41.082031 -5.25 39.925781 -3.734375 37.6875 -2.046875 C 35.445312 -0.367188 32.519531 0.960938 28.90625 1.953125 C 25.300781 2.953125 21.398438 3.222656 17.203125 2.765625 C 12.671875 2.273438 9.148438 0.851562 6.640625 -1.5 C 4.128906 -3.863281 3.066406 -6.847656 3.453125 -10.453125 C 3.628906 -12.117188 4.070312 -13.691406 4.78125 -15.171875 L 13.296875 -34.28125 C 13.753906 -35.363281 14.019531 -36.242188 14.09375 -36.921875 C 14.238281 -38.242188 14.039062 -39.40625 13.5 -40.40625 C 12.96875 -41.414062 12.195312 -42.484375 11.1875 -43.609375 C 10.269531 -44.640625 9.644531 -45.492188 9.3125 -46.171875 C 8.988281 -46.847656 8.972656 -47.609375 9.265625 -48.453125 C 9.617188 -49.296875 10.253906 -49.90625 11.171875 -50.28125 C 12.097656 -50.65625 13.492188 -50.738281 15.359375 -50.53125 L 20.953125 -49.9375 L 27.9375 -55.546875 C 30.375 -57.515625 32.554688 -58.832031 34.484375 -59.5 C 36.410156 -60.164062 38.835938 -60.335938 41.765625 -60.015625 C 45.972656 -59.566406 47.90625 -57.742188 47.5625 -54.546875 C 47.457031 -53.554688 47.222656 -52.640625 46.859375 -51.796875 L 44.953125 -47.34375 Z M 50.25 -46.78125 "/></g></g></g><g fill="#ff9eda" fill-opacity="0.302"><g transform="translate(138.009873, 595.986911)"><g><path d="M 58.359375 -73.328125 C 60.828125 -73.585938 62.796875 -73.253906 64.265625 -72.328125 C 65.742188 -71.398438 66.578125 -70.003906 66.765625 -68.140625 C 66.859375 -67.210938 66.820312 -66.296875 66.65625 -65.390625 L 65 -55.828125 C 64.707031 -54.046875 64.066406 -52.734375 63.078125 -51.890625 C 62.097656 -51.046875 60.738281 -50.535156 59 -50.359375 C 57.332031 -50.179688 55.960938 -50.390625 54.890625 -50.984375 C 53.816406 -51.585938 52.96875 -52.671875 52.34375 -54.234375 L 50.15625 -59.75 C 49.78125 -60.726562 49.375 -61.363281 48.9375 -61.65625 C 48.507812 -61.945312 47.660156 -62.023438 46.390625 -61.890625 L 36.390625 -60.859375 L 32.84375 -40.5 L 34.734375 -40.6875 C 35.660156 -40.78125 36.460938 -40.992188 37.140625 -41.328125 C 37.816406 -41.671875 38.507812 -42.25 39.21875 -43.0625 L 42.0625 -45.984375 C 43.09375 -47.097656 44.035156 -47.914062 44.890625 -48.4375 C 45.753906 -48.96875 46.6875 -49.285156 47.6875 -49.390625 C 48.957031 -49.523438 50.046875 -49.265625 50.953125 -48.609375 C 51.859375 -47.960938 52.378906 -46.972656 52.515625 -45.640625 C 52.578125 -45.109375 52.539062 -44.460938 52.40625 -43.703125 L 49.5625 -28.046875 C 48.914062 -24.691406 47.289062 -22.878906 44.6875 -22.609375 C 42.550781 -22.390625 40.769531 -23.316406 39.34375 -25.390625 L 37.1875 -28.609375 C 36.625 -29.484375 36.128906 -30.03125 35.703125 -30.25 C 35.273438 -30.476562 34.664062 -30.554688 33.875 -30.484375 L 30.96875 -30.171875 L 28.296875 -14.84375 C 28.203125 -14.425781 28.191406 -13.882812 28.265625 -13.21875 C 28.359375 -12.28125 28.648438 -11.535156 29.140625 -10.984375 C 29.640625 -10.441406 30.351562 -9.875 31.28125 -9.28125 C 32.082031 -8.757812 32.632812 -8.328125 32.9375 -7.984375 C 33.25 -7.648438 33.429688 -7.21875 33.484375 -6.6875 C 33.609375 -5.488281 33.160156 -4.597656 32.140625 -4.015625 C 31.117188 -3.441406 29.578125 -3.046875 27.515625 -2.828125 L 2.390625 -0.25 C 0.660156 -0.0703125 -0.664062 -0.253906 -1.59375 -0.796875 C -2.53125 -1.335938 -2.921875 -2.191406 -2.765625 -3.359375 C -2.703125 -3.960938 -2.503906 -4.46875 -2.171875 -4.875 C -1.847656 -5.28125 -1.34375 -5.753906 -0.65625 -6.296875 C 0.40625 -7.085938 1.234375 -7.878906 1.828125 -8.671875 C 2.421875 -9.472656 2.84375 -10.660156 3.09375 -12.234375 L 10.9375 -56.609375 C 11.113281 -57.515625 11.164062 -58.335938 11.09375 -59.078125 C 11.007812 -59.867188 10.820312 -60.519531 10.53125 -61.03125 C 10.238281 -61.550781 9.835938 -62.082031 9.328125 -62.625 C 8.628906 -63.4375 8.253906 -64.109375 8.203125 -64.640625 C 8.179688 -64.828125 8.207031 -65.195312 8.28125 -65.75 C 8.46875 -66.65625 9.007812 -67.332031 9.90625 -67.78125 C 10.800781 -68.238281 12.148438 -68.5625 13.953125 -68.75 Z M 58.359375 -73.328125 "/></g></g></g><g fill="#ff9eda" fill-opacity="0.302"><g transform="translate(200.483021, 589.697046)"><g><path d="M 26.09375 -76.625 C 29.957031 -76.925781 32.867188 -76.414062 34.828125 -75.09375 C 36.785156 -73.769531 37.863281 -71.835938 38.0625 -69.296875 C 38.175781 -67.828125 38.054688 -66.378906 37.703125 -64.953125 L 26.046875 -12.5625 C 25.910156 -11.738281 25.867188 -11.023438 25.921875 -10.421875 C 25.984375 -9.566406 26.195312 -8.898438 26.5625 -8.421875 C 26.9375 -7.941406 27.445312 -7.492188 28.09375 -7.078125 C 28.59375 -6.640625 28.953125 -6.273438 29.171875 -5.984375 C 29.398438 -5.703125 29.46875 -5.320312 29.375 -4.84375 C 29.101562 -3.957031 28.484375 -3.273438 27.515625 -2.796875 C 26.546875 -2.316406 25.023438 -1.992188 22.953125 -1.828125 L 0.09375 0 C -1.632812 0.132812 -2.921875 -0.046875 -3.765625 -0.546875 C -4.617188 -1.054688 -4.953125 -1.789062 -4.765625 -2.75 C -4.554688 -3.570312 -3.910156 -4.332031 -2.828125 -5.03125 C -1.867188 -5.632812 -1.082031 -6.332031 -0.46875 -7.125 C 0.144531 -7.914062 0.625 -9.128906 0.96875 -10.765625 L 12.21875 -62.015625 C 12.363281 -62.628906 12.421875 -63.128906 12.390625 -63.515625 C 12.328125 -64.253906 12.097656 -64.84375 11.703125 -65.28125 C 11.304688 -65.726562 10.789062 -66.160156 10.15625 -66.578125 C 9.425781 -67.066406 8.894531 -67.492188 8.5625 -67.859375 C 8.226562 -68.234375 8.140625 -68.765625 8.296875 -69.453125 C 8.566406 -71.023438 10.5625 -72.53125 14.28125 -73.96875 C 18.007812 -75.40625 21.945312 -76.289062 26.09375 -76.625 Z M 26.09375 -76.625 "/></g></g></g><g fill="#ff9eda" fill-opacity="0.302"><g transform="translate(236.480104, 586.652061)"><g><path d="M 35.921875 -55.28125 C 45.023438 -55.78125 51.835938 -54.304688 56.359375 -50.859375 C 60.878906 -47.421875 63.300781 -42.722656 63.625 -36.765625 C 63.738281 -34.753906 63.597656 -32.492188 63.203125 -29.984375 C 62.242188 -24.429688 60.132812 -19.5 56.875 -15.1875 C 53.613281 -10.875 49.515625 -7.457031 44.578125 -4.9375 C 39.648438 -2.414062 34.242188 -0.988281 28.359375 -0.65625 C 19.054688 -0.144531 12.078125 -1.625 7.421875 -5.09375 C 2.765625 -8.5625 0.265625 -13.378906 -0.078125 -19.546875 C -0.191406 -21.617188 -0.0507812 -23.9375 0.34375 -26.5 C 1.332031 -31.800781 3.503906 -36.570312 6.859375 -40.8125 C 10.222656 -45.050781 14.429688 -48.4375 19.484375 -50.96875 C 24.546875 -53.507812 30.023438 -54.945312 35.921875 -55.28125 Z M 36.09375 -46.328125 C 34.6875 -46.242188 33.269531 -44.898438 31.84375 -42.296875 C 30.414062 -39.703125 28.820312 -34.863281 27.0625 -27.78125 C 25.3125 -20.695312 24.515625 -15.753906 24.671875 -12.953125 C 24.753906 -11.484375 25.039062 -10.507812 25.53125 -10.03125 C 26.019531 -9.550781 26.664062 -9.332031 27.46875 -9.375 C 28.882812 -9.3125 30.273438 -10.59375 31.640625 -13.21875 C 33.015625 -15.84375 34.632812 -20.90625 36.5 -28.40625 C 38.207031 -35.019531 38.976562 -39.800781 38.8125 -42.75 C 38.738281 -44.15625 38.46875 -45.113281 38 -45.625 C 37.539062 -46.132812 36.90625 -46.367188 36.09375 -46.328125 Z M 36.09375 -46.328125 "/></g></g></g><g fill="#ff9eda" fill-opacity="0.302"><g transform="translate(301.528666, 583.090714)"><g><path d="M 47.953125 -54.484375 C 51.703125 -54.585938 54.734375 -53.523438 57.046875 -51.296875 C 59.359375 -49.078125 60.554688 -46.289062 60.640625 -42.9375 C 60.671875 -41.664062 60.566406 -40.492188 60.328125 -39.421875 C 59.734375 -36.648438 58.515625 -34.5 56.671875 -32.96875 C 54.835938 -31.445312 52.613281 -30.65625 50 -30.59375 C 47.457031 -30.519531 45.515625 -31.070312 44.171875 -32.25 C 42.828125 -33.425781 41.625 -35.003906 40.5625 -36.984375 C 40 -38.109375 39.472656 -38.929688 38.984375 -39.453125 C 38.503906 -39.972656 37.96875 -40.226562 37.375 -40.21875 C 36.695312 -40.195312 36.113281 -39.910156 35.625 -39.359375 C 35.132812 -38.816406 34.707031 -37.867188 34.34375 -36.515625 L 27.25 -11.1875 C 27.132812 -10.84375 27.085938 -10.335938 27.109375 -9.671875 C 27.128906 -8.796875 27.394531 -8.082031 27.90625 -7.53125 C 28.425781 -6.976562 29.128906 -6.441406 30.015625 -5.921875 C 30.835938 -5.410156 31.382812 -4.988281 31.65625 -4.65625 C 31.9375 -4.320312 32.050781 -3.890625 32 -3.359375 C 31.882812 -2.484375 31.410156 -1.832031 30.578125 -1.40625 C 29.753906 -0.988281 28.335938 -0.753906 26.328125 -0.703125 L 0.609375 -0.015625 C -1.140625 0.0234375 -2.40625 -0.222656 -3.1875 -0.765625 C -3.976562 -1.316406 -4.28125 -2.066406 -4.09375 -3.015625 C -3.851562 -3.828125 -3.171875 -4.550781 -2.046875 -5.1875 C -1.054688 -5.738281 -0.238281 -6.394531 0.40625 -7.15625 C 1.0625 -7.914062 1.601562 -9.101562 2.03125 -10.71875 L 10.21875 -40 C 10.34375 -40.332031 10.394531 -40.800781 10.375 -41.40625 C 10.363281 -42.144531 10.203125 -42.710938 9.890625 -43.109375 C 9.578125 -43.503906 9.070312 -43.992188 8.375 -44.578125 C 7.695312 -45.097656 7.21875 -45.554688 6.9375 -45.953125 C 6.664062 -46.347656 6.617188 -46.882812 6.796875 -47.5625 C 7.148438 -49.113281 9.222656 -50.523438 13.015625 -51.796875 C 16.804688 -53.078125 20.773438 -53.773438 24.921875 -53.890625 C 27.671875 -53.960938 29.96875 -53.398438 31.8125 -52.203125 C 33.65625 -51.015625 34.875 -49.285156 35.46875 -47.015625 C 38.5625 -51.859375 42.722656 -54.347656 47.953125 -54.484375 Z M 47.953125 -54.484375 "/></g></g></g><g fill="#ff9eda" fill-opacity="0.302"><g transform="translate(359.105833, 581.68069)"><g><path d="M 26.21875 -53.3125 C 30.113281 -53.332031 32.96875 -52.601562 34.78125 -51.125 C 36.59375 -49.65625 37.503906 -47.648438 37.515625 -45.109375 C 37.515625 -43.566406 37.285156 -42.09375 36.828125 -40.6875 L 27.703125 -10.578125 C 27.503906 -9.765625 27.410156 -9.054688 27.421875 -8.453125 C 27.421875 -7.585938 27.585938 -6.90625 27.921875 -6.40625 C 28.253906 -5.90625 28.726562 -5.421875 29.34375 -4.953125 C 29.8125 -4.484375 30.144531 -4.097656 30.34375 -3.796875 C 30.550781 -3.492188 30.585938 -3.109375 30.453125 -2.640625 C 30.128906 -1.765625 29.460938 -1.125 28.453125 -0.71875 C 27.453125 -0.3125 25.910156 -0.101562 23.828125 -0.09375 L 0.90625 0 C -0.84375 0 -2.117188 -0.28125 -2.921875 -0.84375 C -3.722656 -1.40625 -3.992188 -2.160156 -3.734375 -3.109375 C -3.472656 -3.910156 -2.769531 -4.617188 -1.625 -5.234375 C -0.632812 -5.765625 0.191406 -6.398438 0.859375 -7.140625 C 1.535156 -7.890625 2.101562 -9.066406 2.5625 -10.671875 L 11.1875 -39.765625 C 11.382812 -40.367188 11.484375 -40.875 11.484375 -41.28125 C 11.472656 -42.019531 11.300781 -42.601562 10.96875 -43.03125 C 10.632812 -43.46875 10.132812 -43.921875 9.46875 -44.390625 C 8.789062 -44.921875 8.316406 -45.382812 8.046875 -45.78125 C 7.773438 -46.1875 7.738281 -46.722656 7.9375 -47.390625 C 8.332031 -48.929688 10.4375 -50.300781 14.25 -51.5 C 18.070312 -52.695312 22.0625 -53.300781 26.21875 -53.3125 Z M 32.84375 -75.5625 C 35.457031 -75.570312 37.640625 -74.726562 39.390625 -73.03125 C 41.148438 -71.332031 42.035156 -69.242188 42.046875 -66.765625 C 42.054688 -65.015625 41.609375 -63.296875 40.703125 -61.609375 C 39.804688 -59.929688 38.539062 -58.566406 36.90625 -57.515625 C 35.269531 -56.472656 33.445312 -55.953125 31.4375 -55.953125 C 28.882812 -55.941406 26.75 -56.785156 25.03125 -58.484375 C 23.3125 -60.179688 22.410156 -62.304688 22.328125 -64.859375 C 22.328125 -66.535156 22.757812 -68.195312 23.625 -69.84375 C 24.488281 -71.488281 25.722656 -72.847656 27.328125 -73.921875 C 28.929688 -75.003906 30.769531 -75.550781 32.84375 -75.5625 Z M 32.84375 -75.5625 "/></g></g></g><g fill="#ff9eda" fill-opacity="0.302"><g transform="translate(395.53329, 581.578095)"><g/></g></g><g fill="#ff9eda" fill-opacity="0.302"><g transform="translate(415.092438, 581.537628)"><g><path d="M 67.4375 -65.078125 C 69.914062 -65.003906 71.828125 -64.410156 73.171875 -63.296875 C 74.515625 -62.179688 75.160156 -60.6875 75.109375 -58.8125 C 75.078125 -57.875 74.921875 -56.972656 74.640625 -56.109375 L 71.75 -46.859375 C 71.226562 -45.128906 70.421875 -43.910156 69.328125 -43.203125 C 68.234375 -42.492188 66.816406 -42.164062 65.078125 -42.21875 C 63.398438 -42.257812 62.066406 -42.644531 61.078125 -43.375 C 60.097656 -44.113281 59.398438 -45.296875 58.984375 -46.921875 L 57.546875 -52.6875 C 57.304688 -53.707031 56.988281 -54.390625 56.59375 -54.734375 C 56.207031 -55.078125 55.378906 -55.265625 54.109375 -55.296875 L 44.046875 -55.59375 L 37.84375 -35.84375 L 39.75 -35.78125 C 40.6875 -35.757812 41.507812 -35.875 42.21875 -36.125 C 42.9375 -36.375 43.707031 -36.851562 44.53125 -37.5625 L 47.734375 -40.09375 C 48.890625 -41.0625 49.925781 -41.75 50.84375 -42.15625 C 51.769531 -42.570312 52.738281 -42.765625 53.75 -42.734375 C 55.019531 -42.703125 56.0625 -42.300781 56.875 -41.53125 C 57.6875 -40.769531 58.070312 -39.722656 58.03125 -38.390625 C 58.007812 -37.847656 57.890625 -37.210938 57.671875 -36.484375 L 52.828125 -21.328125 C 51.734375 -18.085938 49.878906 -16.503906 47.265625 -16.578125 C 45.117188 -16.640625 43.472656 -17.785156 42.328125 -20.015625 L 40.609375 -23.484375 C 40.160156 -24.441406 39.738281 -25.054688 39.34375 -25.328125 C 38.957031 -25.609375 38.363281 -25.757812 37.5625 -25.78125 L 34.640625 -25.859375 L 30 -11.015625 C 29.851562 -10.617188 29.769531 -10.082031 29.75 -9.40625 C 29.71875 -8.46875 29.910156 -7.691406 30.328125 -7.078125 C 30.742188 -6.472656 31.378906 -5.820312 32.234375 -5.125 C 32.953125 -4.5 33.4375 -3.992188 33.6875 -3.609375 C 33.945312 -3.234375 34.070312 -2.78125 34.0625 -2.25 C 34.03125 -1.039062 33.46875 -0.21875 32.375 0.21875 C 31.289062 0.65625 29.710938 0.84375 27.640625 0.78125 L 2.40625 0.0625 C 0.664062 0.0195312 -0.628906 -0.328125 -1.484375 -0.984375 C -2.335938 -1.648438 -2.609375 -2.550781 -2.296875 -3.6875 C -2.160156 -4.289062 -1.898438 -4.769531 -1.515625 -5.125 C -1.140625 -5.476562 -0.570312 -5.878906 0.1875 -6.328125 C 1.332031 -6.972656 2.25 -7.648438 2.9375 -8.359375 C 3.632812 -9.078125 4.210938 -10.203125 4.671875 -11.734375 L 18.265625 -54.71875 C 18.554688 -55.582031 18.710938 -56.378906 18.734375 -57.109375 C 18.753906 -57.910156 18.65625 -58.582031 18.4375 -59.125 C 18.21875 -59.664062 17.882812 -60.242188 17.4375 -60.859375 C 16.851562 -61.753906 16.570312 -62.46875 16.59375 -63 C 16.59375 -63.195312 16.671875 -63.566406 16.828125 -64.109375 C 17.117188 -64.972656 17.738281 -65.570312 18.6875 -65.90625 C 19.632812 -66.25 21.007812 -66.394531 22.8125 -66.34375 Z M 67.4375 -65.078125 "/></g></g></g><g fill="#ff9eda" fill-opacity="0.302"><g transform="translate(477.726956, 583.360639)"><g><path d="M 37.078125 -51.6875 C 45.566406 -51.207031 51.640625 -49.503906 55.296875 -46.578125 C 58.960938 -43.660156 60.675781 -40.09375 60.4375 -35.875 C 60.375 -34.601562 60.175781 -33.4375 59.84375 -32.375 C 58.59375 -28.007812 55.617188 -25.003906 50.921875 -23.359375 C 46.234375 -21.710938 40.773438 -21.066406 34.546875 -21.421875 C 31.398438 -21.597656 28.460938 -21.96875 25.734375 -22.53125 C 25.484375 -19.039062 26.285156 -16.539062 28.140625 -15.03125 C 30.003906 -13.519531 32.671875 -12.664062 36.140625 -12.46875 C 37.753906 -12.382812 39.304688 -12.484375 40.796875 -12.765625 C 42.296875 -13.046875 44.203125 -13.484375 46.515625 -14.078125 C 48.429688 -14.648438 49.726562 -14.914062 50.40625 -14.875 C 51.132812 -14.84375 51.472656 -14.390625 51.421875 -13.515625 C 51.359375 -11.171875 50.347656 -8.757812 48.390625 -6.28125 C 46.429688 -3.800781 43.628906 -1.757812 39.984375 -0.15625 C 36.335938 1.445312 32.003906 2.109375 26.984375 1.828125 C 19.554688 1.398438 13.570312 -0.816406 9.03125 -4.828125 C 4.5 -8.847656 2.429688 -14.4375 2.828125 -21.59375 C 2.941406 -23.59375 3.34375 -25.921875 4.03125 -28.578125 C 6.15625 -36.710938 10.164062 -42.710938 16.0625 -46.578125 C 21.96875 -50.441406 28.972656 -52.144531 37.078125 -51.6875 Z M 26.78125 -28.5 C 27.050781 -28.414062 27.421875 -28.359375 27.890625 -28.328125 C 30.703125 -28.171875 32.914062 -29.359375 34.53125 -31.890625 C 36.144531 -34.421875 37.007812 -37.289062 37.125 -40.5 C 37.164062 -42.382812 36.691406 -43.351562 35.703125 -43.40625 C 34.960938 -43.445312 34.054688 -42.910156 32.984375 -41.796875 C 31.910156 -40.679688 30.820312 -38.976562 29.71875 -36.6875 C 28.613281 -34.40625 27.632812 -31.675781 26.78125 -28.5 Z M 26.78125 -28.5 "/></g></g></g><g fill="#ff9eda" fill-opacity="0.302"><g transform="translate(533.187286, 586.458886)"><g><path d="M 37.484375 -51.171875 C 43.035156 -50.703125 47.785156 -49.796875 51.734375 -48.453125 C 55.679688 -47.109375 58.664062 -45.441406 60.6875 -43.453125 C 62.71875 -41.472656 63.640625 -39.347656 63.453125 -37.078125 C 63.253906 -34.734375 62.175781 -32.90625 60.21875 -31.59375 C 58.257812 -30.28125 55.640625 -29.757812 52.359375 -30.03125 C 49.023438 -30.3125 46.273438 -31.378906 44.109375 -33.234375 C 41.953125 -35.097656 40.976562 -37.300781 41.1875 -39.84375 C 41.257812 -40.71875 41.457031 -41.546875 41.78125 -42.328125 C 40.601562 -42.753906 39.546875 -43.007812 38.609375 -43.09375 C 36.941406 -43.226562 35.523438 -42.941406 34.359375 -42.234375 C 33.191406 -41.523438 32.578125 -40.4375 32.515625 -38.96875 C 32.378906 -37.226562 33.125 -35.679688 34.75 -34.328125 C 36.382812 -32.984375 39.066406 -31.25 42.796875 -29.125 C 46.015625 -27.375 48.65625 -25.789062 50.71875 -24.375 C 52.789062 -22.957031 54.5 -21.25 55.84375 -19.25 C 57.1875 -17.25 57.753906 -14.984375 57.546875 -12.453125 C 57.492188 -11.910156 57.28125 -10.914062 56.90625 -9.46875 C 55.457031 -5.070312 52.1875 -1.78125 47.09375 0.40625 C 42 2.601562 35.476562 3.367188 27.53125 2.703125 C 18.570312 1.960938 11.566406 0.171875 6.515625 -2.671875 C 1.472656 -5.523438 -0.867188 -9.054688 -0.515625 -13.265625 C -0.273438 -16.140625 0.773438 -18.238281 2.640625 -19.5625 C 4.503906 -20.882812 6.867188 -21.425781 9.734375 -21.1875 C 13.078125 -20.90625 15.847656 -19.628906 18.046875 -17.359375 C 20.253906 -15.097656 21.222656 -12.363281 20.953125 -9.15625 C 20.878906 -8.28125 20.703125 -7.378906 20.421875 -6.453125 C 21.984375 -5.929688 23.503906 -5.609375 24.984375 -5.484375 C 26.710938 -5.335938 28.179688 -5.6875 29.390625 -6.53125 C 30.609375 -7.375 31.289062 -8.628906 31.4375 -10.296875 C 31.5 -11.835938 30.835938 -13.21875 29.453125 -14.4375 C 28.078125 -15.664062 25.851562 -17.175781 22.78125 -18.96875 C 19.882812 -20.632812 17.519531 -22.164062 15.6875 -23.5625 C 13.863281 -24.96875 12.34375 -26.660156 11.125 -28.640625 C 9.914062 -30.628906 9.421875 -32.894531 9.640625 -35.4375 C 10.085938 -40.90625 12.734375 -45.066406 17.578125 -47.921875 C 22.429688 -50.785156 29.066406 -51.867188 37.484375 -51.171875 Z M 37.484375 -51.171875 "/></g></g></g><g fill="#ff9eda" fill-opacity="0.302"><g transform="translate(591.92524, 591.46149)"><g><path d="M 50.25 -46.78125 C 51.519531 -46.644531 52.472656 -46.269531 53.109375 -45.65625 C 53.753906 -45.039062 54.023438 -44.269531 53.921875 -43.34375 C 53.898438 -43.070312 53.785156 -42.609375 53.578125 -41.953125 C 52.390625 -39.117188 50.226562 -37.875 47.09375 -38.21875 L 41.296875 -38.84375 L 31.140625 -14.953125 C 30.691406 -13.984375 30.410156 -12.960938 30.296875 -11.890625 C 30.171875 -10.703125 30.414062 -9.835938 31.03125 -9.296875 C 31.65625 -8.753906 32.566406 -8.421875 33.765625 -8.296875 C 34.828125 -8.179688 36.171875 -8.164062 37.796875 -8.25 C 38.617188 -8.375 39.332031 -8.40625 39.9375 -8.34375 C 40.394531 -8.289062 40.722656 -8.101562 40.921875 -7.78125 C 41.128906 -7.457031 41.207031 -7.0625 41.15625 -6.59375 C 41.082031 -5.25 39.925781 -3.734375 37.6875 -2.046875 C 35.445312 -0.367188 32.519531 0.960938 28.90625 1.953125 C 25.300781 2.953125 21.398438 3.222656 17.203125 2.765625 C 12.671875 2.273438 9.148438 0.851562 6.640625 -1.5 C 4.128906 -3.863281 3.066406 -6.847656 3.453125 -10.453125 C 3.628906 -12.117188 4.070312 -13.691406 4.78125 -15.171875 L 13.296875 -34.28125 C 13.753906 -35.363281 14.019531 -36.242188 14.09375 -36.921875 C 14.238281 -38.242188 14.039062 -39.40625 13.5 -40.40625 C 12.96875 -41.414062 12.195312 -42.484375 11.1875 -43.609375 C 10.269531 -44.640625 9.644531 -45.492188 9.3125 -46.171875 C 8.988281 -46.847656 8.972656 -47.609375 9.265625 -48.453125 C 9.617188 -49.296875 10.253906 -49.90625 11.171875 -50.28125 C 12.097656 -50.65625 13.492188 -50.738281 15.359375 -50.53125 L 20.953125 -49.9375 L 27.9375 -55.546875 C 30.375 -57.515625 32.554688 -58.832031 34.484375 -59.5 C 36.410156 -60.164062 38.835938 -60.335938 41.765625 -60.015625 C 45.972656 -59.566406 47.90625 -57.742188 47.5625 -54.546875 C 47.457031 -53.554688 47.222656 -52.640625 46.859375 -51.796875 L 44.953125 -47.34375 Z M 50.25 -46.78125 "/></g></g></g><g fill="#ff9eda" fill-opacity="1"><g transform="translate(128.636156, 582.59988)"><g><path d="M 58.359375 -73.328125 C 60.828125 -73.585938 62.796875 -73.253906 64.265625 -72.328125 C 65.742188 -71.398438 66.578125 -70.003906 66.765625 -68.140625 C 66.859375 -67.210938 66.820312 -66.296875 66.65625 -65.390625 L 65 -55.828125 C 64.707031 -54.046875 64.066406 -52.734375 63.078125 -51.890625 C 62.097656 -51.046875 60.738281 -50.535156 59 -50.359375 C 57.332031 -50.179688 55.960938 -50.390625 54.890625 -50.984375 C 53.816406 -51.585938 52.96875 -52.671875 52.34375 -54.234375 L 50.15625 -59.75 C 49.78125 -60.726562 49.375 -61.363281 48.9375 -61.65625 C 48.507812 -61.945312 47.660156 -62.023438 46.390625 -61.890625 L 36.390625 -60.859375 L 32.84375 -40.5 L 34.734375 -40.6875 C 35.660156 -40.78125 36.460938 -40.992188 37.140625 -41.328125 C 37.816406 -41.671875 38.507812 -42.25 39.21875 -43.0625 L 42.0625 -45.984375 C 43.09375 -47.097656 44.035156 -47.914062 44.890625 -48.4375 C 45.753906 -48.96875 46.6875 -49.285156 47.6875 -49.390625 C 48.957031 -49.523438 50.046875 -49.265625 50.953125 -48.609375 C 51.859375 -47.960938 52.378906 -46.972656 52.515625 -45.640625 C 52.578125 -45.109375 52.539062 -44.460938 52.40625 -43.703125 L 49.5625 -28.046875 C 48.914062 -24.691406 47.289062 -22.878906 44.6875 -22.609375 C 42.550781 -22.390625 40.769531 -23.316406 39.34375 -25.390625 L 37.1875 -28.609375 C 36.625 -29.484375 36.128906 -30.03125 35.703125 -30.25 C 35.273438 -30.476562 34.664062 -30.554688 33.875 -30.484375 L 30.96875 -30.171875 L 28.296875 -14.84375 C 28.203125 -14.425781 28.191406 -13.882812 28.265625 -13.21875 C 28.359375 -12.28125 28.648438 -11.535156 29.140625 -10.984375 C 29.640625 -10.441406 30.351562 -9.875 31.28125 -9.28125 C 32.082031 -8.757812 32.632812 -8.328125 32.9375 -7.984375 C 33.25 -7.648438 33.429688 -7.21875 33.484375 -6.6875 C 33.609375 -5.488281 33.160156 -4.597656 32.140625 -4.015625 C 31.117188 -3.441406 29.578125 -3.046875 27.515625 -2.828125 L 2.390625 -0.25 C 0.660156 -0.0703125 -0.664062 -0.253906 -1.59375 -0.796875 C -2.53125 -1.335938 -2.921875 -2.191406 -2.765625 -3.359375 C -2.703125 -3.960938 -2.503906 -4.46875 -2.171875 -4.875 C -1.847656 -5.28125 -1.34375 -5.753906 -0.65625 -6.296875 C 0.40625 -7.085938 1.234375 -7.878906 1.828125 -8.671875 C 2.421875 -9.472656 2.84375 -10.660156 3.09375 -12.234375 L 10.9375 -56.609375 C 11.113281 -57.515625 11.164062 -58.335938 11.09375 -59.078125 C 11.007812 -59.867188 10.820312 -60.519531 10.53125 -61.03125 C 10.238281 -61.550781 9.835938 -62.082031 9.328125 -62.625 C 8.628906 -63.4375 8.253906 -64.109375 8.203125 -64.640625 C 8.179688 -64.828125 8.207031 -65.195312 8.28125 -65.75 C 8.46875 -66.65625 9.007812 -67.332031 9.90625 -67.78125 C 10.800781 -68.238281 12.148438 -68.5625 13.953125 -68.75 Z M 58.359375 -73.328125 "/></g></g></g><g fill="#ff9eda" fill-opacity="1"><g transform="translate(191.109282, 576.309991)"><g><path d="M 26.09375 -76.625 C 29.957031 -76.925781 32.867188 -76.414062 34.828125 -75.09375 C 36.785156 -73.769531 37.863281 -71.835938 38.0625 -69.296875 C 38.175781 -67.828125 38.054688 -66.378906 37.703125 -64.953125 L 26.046875 -12.5625 C 25.910156 -11.738281 25.867188 -11.023438 25.921875 -10.421875 C 25.984375 -9.566406 26.195312 -8.898438 26.5625 -8.421875 C 26.9375 -7.941406 27.445312 -7.492188 28.09375 -7.078125 C 28.59375 -6.640625 28.953125 -6.273438 29.171875 -5.984375 C 29.398438 -5.703125 29.46875 -5.320312 29.375 -4.84375 C 29.101562 -3.957031 28.484375 -3.273438 27.515625 -2.796875 C 26.546875 -2.316406 25.023438 -1.992188 22.953125 -1.828125 L 0.09375 0 C -1.632812 0.132812 -2.921875 -0.046875 -3.765625 -0.546875 C -4.617188 -1.054688 -4.953125 -1.789062 -4.765625 -2.75 C -4.554688 -3.570312 -3.910156 -4.332031 -2.828125 -5.03125 C -1.867188 -5.632812 -1.082031 -6.332031 -0.46875 -7.125 C 0.144531 -7.914062 0.625 -9.128906 0.96875 -10.765625 L 12.21875 -62.015625 C 12.363281 -62.628906 12.421875 -63.128906 12.390625 -63.515625 C 12.328125 -64.253906 12.097656 -64.84375 11.703125 -65.28125 C 11.304688 -65.726562 10.789062 -66.160156 10.15625 -66.578125 C 9.425781 -67.066406 8.894531 -67.492188 8.5625 -67.859375 C 8.226562 -68.234375 8.140625 -68.765625 8.296875 -69.453125 C 8.566406 -71.023438 10.5625 -72.53125 14.28125 -73.96875 C 18.007812 -75.40625 21.945312 -76.289062 26.09375 -76.625 Z M 26.09375 -76.625 "/></g></g></g><g fill="#ff9eda" fill-opacity="1"><g transform="translate(227.106379, 573.265054)"><g><path d="M 35.921875 -55.28125 C 45.023438 -55.78125 51.835938 -54.304688 56.359375 -50.859375 C 60.878906 -47.421875 63.300781 -42.722656 63.625 -36.765625 C 63.738281 -34.753906 63.597656 -32.492188 63.203125 -29.984375 C 62.242188 -24.429688 60.132812 -19.5 56.875 -15.1875 C 53.613281 -10.875 49.515625 -7.457031 44.578125 -4.9375 C 39.648438 -2.414062 34.242188 -0.988281 28.359375 -0.65625 C 19.054688 -0.144531 12.078125 -1.625 7.421875 -5.09375 C 2.765625 -8.5625 0.265625 -13.378906 -0.078125 -19.546875 C -0.191406 -21.617188 -0.0507812 -23.9375 0.34375 -26.5 C 1.332031 -31.800781 3.503906 -36.570312 6.859375 -40.8125 C 10.222656 -45.050781 14.429688 -48.4375 19.484375 -50.96875 C 24.546875 -53.507812 30.023438 -54.945312 35.921875 -55.28125 Z M 36.09375 -46.328125 C 34.6875 -46.242188 33.269531 -44.898438 31.84375 -42.296875 C 30.414062 -39.703125 28.820312 -34.863281 27.0625 -27.78125 C 25.3125 -20.695312 24.515625 -15.753906 24.671875 -12.953125 C 24.753906 -11.484375 25.039062 -10.507812 25.53125 -10.03125 C 26.019531 -9.550781 26.664062 -9.332031 27.46875 -9.375 C 28.882812 -9.3125 30.273438 -10.59375 31.640625 -13.21875 C 33.015625 -15.84375 34.632812 -20.90625 36.5 -28.40625 C 38.207031 -35.019531 38.976562 -39.800781 38.8125 -42.75 C 38.738281 -44.15625 38.46875 -45.113281 38 -45.625 C 37.539062 -46.132812 36.90625 -46.367188 36.09375 -46.328125 Z M 36.09375 -46.328125 "/></g></g></g><g fill="#ff9eda" fill-opacity="1"><g transform="translate(292.154956, 569.703683)"><g><path d="M 47.953125 -54.484375 C 51.703125 -54.585938 54.734375 -53.523438 57.046875 -51.296875 C 59.359375 -49.078125 60.554688 -46.289062 60.640625 -42.9375 C 60.671875 -41.664062 60.566406 -40.492188 60.328125 -39.421875 C 59.734375 -36.648438 58.515625 -34.5 56.671875 -32.96875 C 54.835938 -31.445312 52.613281 -30.65625 50 -30.59375 C 47.457031 -30.519531 45.515625 -31.070312 44.171875 -32.25 C 42.828125 -33.425781 41.625 -35.003906 40.5625 -36.984375 C 40 -38.109375 39.472656 -38.929688 38.984375 -39.453125 C 38.503906 -39.972656 37.96875 -40.226562 37.375 -40.21875 C 36.695312 -40.195312 36.113281 -39.910156 35.625 -39.359375 C 35.132812 -38.816406 34.707031 -37.867188 34.34375 -36.515625 L 27.25 -11.1875 C 27.132812 -10.84375 27.085938 -10.335938 27.109375 -9.671875 C 27.128906 -8.796875 27.394531 -8.082031 27.90625 -7.53125 C 28.425781 -6.976562 29.128906 -6.441406 30.015625 -5.921875 C 30.835938 -5.410156 31.382812 -4.988281 31.65625 -4.65625 C 31.9375 -4.320312 32.050781 -3.890625 32 -3.359375 C 31.882812 -2.484375 31.410156 -1.832031 30.578125 -1.40625 C 29.753906 -0.988281 28.335938 -0.753906 26.328125 -0.703125 L 0.609375 -0.015625 C -1.140625 0.0234375 -2.40625 -0.222656 -3.1875 -0.765625 C -3.976562 -1.316406 -4.28125 -2.066406 -4.09375 -3.015625 C -3.851562 -3.828125 -3.171875 -4.550781 -2.046875 -5.1875 C -1.054688 -5.738281 -0.238281 -6.394531 0.40625 -7.15625 C 1.0625 -7.914062 1.601562 -9.101562 2.03125 -10.71875 L 10.21875 -40 C 10.34375 -40.332031 10.394531 -40.800781 10.375 -41.40625 C 10.363281 -42.144531 10.203125 -42.710938 9.890625 -43.109375 C 9.578125 -43.503906 9.070312 -43.992188 8.375 -44.578125 C 7.695312 -45.097656 7.21875 -45.554688 6.9375 -45.953125 C 6.664062 -46.347656 6.617188 -46.882812 6.796875 -47.5625 C 7.148438 -49.113281 9.222656 -50.523438 13.015625 -51.796875 C 16.804688 -53.078125 20.773438 -53.773438 24.921875 -53.890625 C 27.671875 -53.960938 29.96875 -53.398438 31.8125 -52.203125 C 33.65625 -51.015625 34.875 -49.285156 35.46875 -47.015625 C 38.5625 -51.859375 42.722656 -54.347656 47.953125 -54.484375 Z M 47.953125 -54.484375 "/></g></g></g><g fill="#ff9eda" fill-opacity="1"><g transform="translate(349.732122, 568.293683)"><g><path d="M 26.21875 -53.3125 C 30.113281 -53.332031 32.96875 -52.601562 34.78125 -51.125 C 36.59375 -49.65625 37.503906 -47.648438 37.515625 -45.109375 C 37.515625 -43.566406 37.285156 -42.09375 36.828125 -40.6875 L 27.703125 -10.578125 C 27.503906 -9.765625 27.410156 -9.054688 27.421875 -8.453125 C 27.421875 -7.585938 27.585938 -6.90625 27.921875 -6.40625 C 28.253906 -5.90625 28.726562 -5.421875 29.34375 -4.953125 C 29.8125 -4.484375 30.144531 -4.097656 30.34375 -3.796875 C 30.550781 -3.492188 30.585938 -3.109375 30.453125 -2.640625 C 30.128906 -1.765625 29.460938 -1.125 28.453125 -0.71875 C 27.453125 -0.3125 25.910156 -0.101562 23.828125 -0.09375 L 0.90625 0 C -0.84375 0 -2.117188 -0.28125 -2.921875 -0.84375 C -3.722656 -1.40625 -3.992188 -2.160156 -3.734375 -3.109375 C -3.472656 -3.910156 -2.769531 -4.617188 -1.625 -5.234375 C -0.632812 -5.765625 0.191406 -6.398438 0.859375 -7.140625 C 1.535156 -7.890625 2.101562 -9.066406 2.5625 -10.671875 L 11.1875 -39.765625 C 11.382812 -40.367188 11.484375 -40.875 11.484375 -41.28125 C 11.472656 -42.019531 11.300781 -42.601562 10.96875 -43.03125 C 10.632812 -43.46875 10.132812 -43.921875 9.46875 -44.390625 C 8.789062 -44.921875 8.316406 -45.382812 8.046875 -45.78125 C 7.773438 -46.1875 7.738281 -46.722656 7.9375 -47.390625 C 8.332031 -48.929688 10.4375 -50.300781 14.25 -51.5 C 18.070312 -52.695312 22.0625 -53.300781 26.21875 -53.3125 Z M 32.84375 -75.5625 C 35.457031 -75.570312 37.640625 -74.726562 39.390625 -73.03125 C 41.148438 -71.332031 42.035156 -69.242188 42.046875 -66.765625 C 42.054688 -65.015625 41.609375 -63.296875 40.703125 -61.609375 C 39.804688 -59.929688 38.539062 -58.566406 36.90625 -57.515625 C 35.269531 -56.472656 33.445312 -55.953125 31.4375 -55.953125 C 28.882812 -55.941406 26.75 -56.785156 25.03125 -58.484375 C 23.3125 -60.179688 22.410156 -62.304688 22.328125 -64.859375 C 22.328125 -66.535156 22.757812 -68.195312 23.625 -69.84375 C 24.488281 -71.488281 25.722656 -72.847656 27.328125 -73.921875 C 28.929688 -75.003906 30.769531 -75.550781 32.84375 -75.5625 Z M 32.84375 -75.5625 "/></g></g></g><g fill="#ff9eda" fill-opacity="1"><g transform="translate(386.159551, 568.191064)"><g/></g></g><g fill="#ff9eda" fill-opacity="1"><g transform="translate(405.718735, 568.150621)"><g><path d="M 67.4375 -65.078125 C 69.914062 -65.003906 71.828125 -64.410156 73.171875 -63.296875 C 74.515625 -62.179688 75.160156 -60.6875 75.109375 -58.8125 C 75.078125 -57.875 74.921875 -56.972656 74.640625 -56.109375 L 71.75 -46.859375 C 71.226562 -45.128906 70.421875 -43.910156 69.328125 -43.203125 C 68.234375 -42.492188 66.816406 -42.164062 65.078125 -42.21875 C 63.398438 -42.257812 62.066406 -42.644531 61.078125 -43.375 C 60.097656 -44.113281 59.398438 -45.296875 58.984375 -46.921875 L 57.546875 -52.6875 C 57.304688 -53.707031 56.988281 -54.390625 56.59375 -54.734375 C 56.207031 -55.078125 55.378906 -55.265625 54.109375 -55.296875 L 44.046875 -55.59375 L 37.84375 -35.84375 L 39.75 -35.78125 C 40.6875 -35.757812 41.507812 -35.875 42.21875 -36.125 C 42.9375 -36.375 43.707031 -36.851562 44.53125 -37.5625 L 47.734375 -40.09375 C 48.890625 -41.0625 49.925781 -41.75 50.84375 -42.15625 C 51.769531 -42.570312 52.738281 -42.765625 53.75 -42.734375 C 55.019531 -42.703125 56.0625 -42.300781 56.875 -41.53125 C 57.6875 -40.769531 58.070312 -39.722656 58.03125 -38.390625 C 58.007812 -37.847656 57.890625 -37.210938 57.671875 -36.484375 L 52.828125 -21.328125 C 51.734375 -18.085938 49.878906 -16.503906 47.265625 -16.578125 C 45.117188 -16.640625 43.472656 -17.785156 42.328125 -20.015625 L 40.609375 -23.484375 C 40.160156 -24.441406 39.738281 -25.054688 39.34375 -25.328125 C 38.957031 -25.609375 38.363281 -25.757812 37.5625 -25.78125 L 34.640625 -25.859375 L 30 -11.015625 C 29.851562 -10.617188 29.769531 -10.082031 29.75 -9.40625 C 29.71875 -8.46875 29.910156 -7.691406 30.328125 -7.078125 C 30.742188 -6.472656 31.378906 -5.820312 32.234375 -5.125 C 32.953125 -4.5 33.4375 -3.992188 33.6875 -3.609375 C 33.945312 -3.234375 34.070312 -2.78125 34.0625 -2.25 C 34.03125 -1.039062 33.46875 -0.21875 32.375 0.21875 C 31.289062 0.65625 29.710938 0.84375 27.640625 0.78125 L 2.40625 0.0625 C 0.664062 0.0195312 -0.628906 -0.328125 -1.484375 -0.984375 C -2.335938 -1.648438 -2.609375 -2.550781 -2.296875 -3.6875 C -2.160156 -4.289062 -1.898438 -4.769531 -1.515625 -5.125 C -1.140625 -5.476562 -0.570312 -5.878906 0.1875 -6.328125 C 1.332031 -6.972656 2.25 -7.648438 2.9375 -8.359375 C 3.632812 -9.078125 4.210938 -10.203125 4.671875 -11.734375 L 18.265625 -54.71875 C 18.554688 -55.582031 18.710938 -56.378906 18.734375 -57.109375 C 18.753906 -57.910156 18.65625 -58.582031 18.4375 -59.125 C 18.21875 -59.664062 17.882812 -60.242188 17.4375 -60.859375 C 16.851562 -61.753906 16.570312 -62.46875 16.59375 -63 C 16.59375 -63.195312 16.671875 -63.566406 16.828125 -64.109375 C 17.117188 -64.972656 17.738281 -65.570312 18.6875 -65.90625 C 19.632812 -66.25 21.007812 -66.394531 22.8125 -66.34375 Z M 67.4375 -65.078125 "/></g></g></g><g fill="#ff9eda" fill-opacity="1"><g transform="translate(468.353229, 569.973632)"><g><path d="M 37.078125 -51.6875 C 45.566406 -51.207031 51.640625 -49.503906 55.296875 -46.578125 C 58.960938 -43.660156 60.675781 -40.09375 60.4375 -35.875 C 60.375 -34.601562 60.175781 -33.4375 59.84375 -32.375 C 58.59375 -28.007812 55.617188 -25.003906 50.921875 -23.359375 C 46.234375 -21.710938 40.773438 -21.066406 34.546875 -21.421875 C 31.398438 -21.597656 28.460938 -21.96875 25.734375 -22.53125 C 25.484375 -19.039062 26.285156 -16.539062 28.140625 -15.03125 C 30.003906 -13.519531 32.671875 -12.664062 36.140625 -12.46875 C 37.753906 -12.382812 39.304688 -12.484375 40.796875 -12.765625 C 42.296875 -13.046875 44.203125 -13.484375 46.515625 -14.078125 C 48.429688 -14.648438 49.726562 -14.914062 50.40625 -14.875 C 51.132812 -14.84375 51.472656 -14.390625 51.421875 -13.515625 C 51.359375 -11.171875 50.347656 -8.757812 48.390625 -6.28125 C 46.429688 -3.800781 43.628906 -1.757812 39.984375 -0.15625 C 36.335938 1.445312 32.003906 2.109375 26.984375 1.828125 C 19.554688 1.398438 13.570312 -0.816406 9.03125 -4.828125 C 4.5 -8.847656 2.429688 -14.4375 2.828125 -21.59375 C 2.941406 -23.59375 3.34375 -25.921875 4.03125 -28.578125 C 6.15625 -36.710938 10.164062 -42.710938 16.0625 -46.578125 C 21.96875 -50.441406 28.972656 -52.144531 37.078125 -51.6875 Z M 26.78125 -28.5 C 27.050781 -28.414062 27.421875 -28.359375 27.890625 -28.328125 C 30.703125 -28.171875 32.914062 -29.359375 34.53125 -31.890625 C 36.144531 -34.421875 37.007812 -37.289062 37.125 -40.5 C 37.164062 -42.382812 36.691406 -43.351562 35.703125 -43.40625 C 34.960938 -43.445312 34.054688 -42.910156 32.984375 -41.796875 C 31.910156 -40.679688 30.820312 -38.976562 29.71875 -36.6875 C 28.613281 -34.40625 27.632812 -31.675781 26.78125 -28.5 Z M 26.78125 -28.5 "/></g></g></g><g fill="#ff9eda" fill-opacity="1"><g transform="translate(523.813558, 573.071855)"><g><path d="M 37.484375 -51.171875 C 43.035156 -50.703125 47.785156 -49.796875 51.734375 -48.453125 C 55.679688 -47.109375 58.664062 -45.441406 60.6875 -43.453125 C 62.71875 -41.472656 63.640625 -39.347656 63.453125 -37.078125 C 63.253906 -34.734375 62.175781 -32.90625 60.21875 -31.59375 C 58.257812 -30.28125 55.640625 -29.757812 52.359375 -30.03125 C 49.023438 -30.3125 46.273438 -31.378906 44.109375 -33.234375 C 41.953125 -35.097656 40.976562 -37.300781 41.1875 -39.84375 C 41.257812 -40.71875 41.457031 -41.546875 41.78125 -42.328125 C 40.601562 -42.753906 39.546875 -43.007812 38.609375 -43.09375 C 36.941406 -43.226562 35.523438 -42.941406 34.359375 -42.234375 C 33.191406 -41.523438 32.578125 -40.4375 32.515625 -38.96875 C 32.378906 -37.226562 33.125 -35.679688 34.75 -34.328125 C 36.382812 -32.984375 39.066406 -31.25 42.796875 -29.125 C 46.015625 -27.375 48.65625 -25.789062 50.71875 -24.375 C 52.789062 -22.957031 54.5 -21.25 55.84375 -19.25 C 57.1875 -17.25 57.753906 -14.984375 57.546875 -12.453125 C 57.492188 -11.910156 57.28125 -10.914062 56.90625 -9.46875 C 55.457031 -5.070312 52.1875 -1.78125 47.09375 0.40625 C 42 2.601562 35.476562 3.367188 27.53125 2.703125 C 18.570312 1.960938 11.566406 0.171875 6.515625 -2.671875 C 1.472656 -5.523438 -0.867188 -9.054688 -0.515625 -13.265625 C -0.273438 -16.140625 0.773438 -18.238281 2.640625 -19.5625 C 4.503906 -20.882812 6.867188 -21.425781 9.734375 -21.1875 C 13.078125 -20.90625 15.847656 -19.628906 18.046875 -17.359375 C 20.253906 -15.097656 21.222656 -12.363281 20.953125 -9.15625 C 20.878906 -8.28125 20.703125 -7.378906 20.421875 -6.453125 C 21.984375 -5.929688 23.503906 -5.609375 24.984375 -5.484375 C 26.710938 -5.335938 28.179688 -5.6875 29.390625 -6.53125 C 30.609375 -7.375 31.289062 -8.628906 31.4375 -10.296875 C 31.5 -11.835938 30.835938 -13.21875 29.453125 -14.4375 C 28.078125 -15.664062 25.851562 -17.175781 22.78125 -18.96875 C 19.882812 -20.632812 17.519531 -22.164062 15.6875 -23.5625 C 13.863281 -24.96875 12.34375 -26.660156 11.125 -28.640625 C 9.914062 -30.628906 9.421875 -32.894531 9.640625 -35.4375 C 10.085938 -40.90625 12.734375 -45.066406 17.578125 -47.921875 C 22.429688 -50.785156 29.066406 -51.867188 37.484375 -51.171875 Z M 37.484375 -51.171875 "/></g></g></g><g fill="#ff9eda" fill-opacity="1"><g transform="translate(582.551512, 578.07446)"><g><path d="M 50.25 -46.78125 C 51.519531 -46.644531 52.472656 -46.269531 53.109375 -45.65625 C 53.753906 -45.039062 54.023438 -44.269531 53.921875 -43.34375 C 53.898438 -43.070312 53.785156 -42.609375 53.578125 -41.953125 C 52.390625 -39.117188 50.226562 -37.875 47.09375 -38.21875 L 41.296875 -38.84375 L 31.140625 -14.953125 C 30.691406 -13.984375 30.410156 -12.960938 30.296875 -11.890625 C 30.171875 -10.703125 30.414062 -9.835938 31.03125 -9.296875 C 31.65625 -8.753906 32.566406 -8.421875 33.765625 -8.296875 C 34.828125 -8.179688 36.171875 -8.164062 37.796875 -8.25 C 38.617188 -8.375 39.332031 -8.40625 39.9375 -8.34375 C 40.394531 -8.289062 40.722656 -8.101562 40.921875 -7.78125 C 41.128906 -7.457031 41.207031 -7.0625 41.15625 -6.59375 C 41.082031 -5.25 39.925781 -3.734375 37.6875 -2.046875 C 35.445312 -0.367188 32.519531 0.960938 28.90625 1.953125 C 25.300781 2.953125 21.398438 3.222656 17.203125 2.765625 C 12.671875 2.273438 9.148438 0.851562 6.640625 -1.5 C 4.128906 -3.863281 3.066406 -6.847656 3.453125 -10.453125 C 3.628906 -12.117188 4.070312 -13.691406 4.78125 -15.171875 L 13.296875 -34.28125 C 13.753906 -35.363281 14.019531 -36.242188 14.09375 -36.921875 C 14.238281 -38.242188 14.039062 -39.40625 13.5 -40.40625 C 12.96875 -41.414062 12.195312 -42.484375 11.1875 -43.609375 C 10.269531 -44.640625 9.644531 -45.492188 9.3125 -46.171875 C 8.988281 -46.847656 8.972656 -47.609375 9.265625 -48.453125 C 9.617188 -49.296875 10.253906 -49.90625 11.171875 -50.28125 C 12.097656 -50.65625 13.492188 -50.738281 15.359375 -50.53125 L 20.953125 -49.9375 L 27.9375 -55.546875 C 30.375 -57.515625 32.554688 -58.832031 34.484375 -59.5 C 36.410156 -60.164062 38.835938 -60.335938 41.765625 -60.015625 C 45.972656 -59.566406 47.90625 -57.742188 47.5625 -54.546875 C 47.457031 -53.554688 47.222656 -52.640625 46.859375 -51.796875 L 44.953125 -47.34375 Z M 50.25 -46.78125 "/></g></g></g></svg>